%TF.GenerationSoftware,KiCad,Pcbnew,7.0.7*%
%TF.CreationDate,2025-02-28T10:15:51+00:00*%
%TF.ProjectId,MRF67-pro-small,4d524636-372d-4707-926f-2d736d616c6c,rev?*%
%TF.SameCoordinates,Original*%
%TF.FileFunction,Copper,L1,Top*%
%TF.FilePolarity,Positive*%
%FSLAX46Y46*%
G04 Gerber Fmt 4.6, Leading zero omitted, Abs format (unit mm)*
G04 Created by KiCad (PCBNEW 7.0.7) date 2025-02-28 10:15:51*
%MOMM*%
%LPD*%
G01*
G04 APERTURE LIST*
G04 Aperture macros list*
%AMRoundRect*
0 Rectangle with rounded corners*
0 $1 Rounding radius*
0 $2 $3 $4 $5 $6 $7 $8 $9 X,Y pos of 4 corners*
0 Add a 4 corners polygon primitive as box body*
4,1,4,$2,$3,$4,$5,$6,$7,$8,$9,$2,$3,0*
0 Add four circle primitives for the rounded corners*
1,1,$1+$1,$2,$3*
1,1,$1+$1,$4,$5*
1,1,$1+$1,$6,$7*
1,1,$1+$1,$8,$9*
0 Add four rect primitives between the rounded corners*
20,1,$1+$1,$2,$3,$4,$5,0*
20,1,$1+$1,$4,$5,$6,$7,0*
20,1,$1+$1,$6,$7,$8,$9,0*
20,1,$1+$1,$8,$9,$2,$3,0*%
G04 Aperture macros list end*
%TA.AperFunction,ComponentPad*%
%ADD10R,1.700000X1.700000*%
%TD*%
%TA.AperFunction,ComponentPad*%
%ADD11O,1.700000X1.700000*%
%TD*%
%TA.AperFunction,ComponentPad*%
%ADD12RoundRect,0.250000X0.350000X0.625000X-0.350000X0.625000X-0.350000X-0.625000X0.350000X-0.625000X0*%
%TD*%
%TA.AperFunction,ComponentPad*%
%ADD13O,1.200000X1.750000*%
%TD*%
%TA.AperFunction,ComponentPad*%
%ADD14RoundRect,0.250000X-0.625000X0.350000X-0.625000X-0.350000X0.625000X-0.350000X0.625000X0.350000X0*%
%TD*%
%TA.AperFunction,ComponentPad*%
%ADD15O,1.750000X1.200000*%
%TD*%
%TA.AperFunction,ViaPad*%
%ADD16C,0.800000*%
%TD*%
%TA.AperFunction,Conductor*%
%ADD17C,0.250000*%
%TD*%
G04 APERTURE END LIST*
D10*
%TO.P,J2,1,Pin_1*%
%TO.N,unconnected-(J2-Pin_1-Pad1)*%
X146050000Y-101600000D03*
D11*
%TO.P,J2,2,Pin_2*%
%TO.N,unconnected-(J2-Pin_2-Pad2)*%
X143510000Y-101600000D03*
%TO.P,J2,3,Pin_3*%
%TO.N,unconnected-(J2-Pin_3-Pad3)*%
X140970000Y-101600000D03*
%TO.P,J2,4,Pin_4*%
%TO.N,unconnected-(J2-Pin_4-Pad4)*%
X138430000Y-101600000D03*
%TO.P,J2,5,Pin_5*%
%TO.N,Net-(J2-Pin_5)*%
X135890000Y-101600000D03*
%TO.P,J2,6,Pin_6*%
%TO.N,Net-(J2-Pin_6)*%
X133350000Y-101600000D03*
%TO.P,J2,7,Pin_7*%
%TO.N,unconnected-(J2-Pin_7-Pad7)*%
X130810000Y-101600000D03*
%TO.P,J2,8,Pin_8*%
%TO.N,unconnected-(J2-Pin_8-Pad8)*%
X128270000Y-101600000D03*
%TO.P,J2,9,Pin_9*%
%TO.N,unconnected-(J2-Pin_9-Pad9)*%
X125730000Y-101600000D03*
%TO.P,J2,10,Pin_10*%
%TO.N,unconnected-(J2-Pin_10-Pad10)*%
X123190000Y-101600000D03*
%TO.P,J2,11,Pin_11*%
%TO.N,Net-(J2-Pin_11)*%
X120650000Y-101600000D03*
%TO.P,J2,12,Pin_12*%
%TO.N,unconnected-(J2-Pin_12-Pad12)*%
X118110000Y-101600000D03*
%TD*%
D10*
%TO.P,J1,1,Pin_1*%
%TO.N,unconnected-(J1-Pin_1-Pad1)*%
X107950000Y-121920000D03*
D11*
%TO.P,J1,2,Pin_2*%
%TO.N,Net-(J1-Pin_2)*%
X110490000Y-121920000D03*
%TO.P,J1,3,Pin_3*%
%TO.N,unconnected-(J1-Pin_3-Pad3)*%
X113030000Y-121920000D03*
%TO.P,J1,4,Pin_4*%
%TO.N,Net-(J1-Pin_4)*%
X115570000Y-121920000D03*
%TO.P,J1,5,Pin_5*%
%TO.N,unconnected-(J1-Pin_5-Pad5)*%
X118110000Y-121920000D03*
%TO.P,J1,6,Pin_6*%
%TO.N,unconnected-(J1-Pin_6-Pad6)*%
X120650000Y-121920000D03*
%TO.P,J1,7,Pin_7*%
%TO.N,unconnected-(J1-Pin_7-Pad7)*%
X123190000Y-121920000D03*
%TO.P,J1,8,Pin_8*%
%TO.N,unconnected-(J1-Pin_8-Pad8)*%
X125730000Y-121920000D03*
%TO.P,J1,9,Pin_9*%
%TO.N,unconnected-(J1-Pin_9-Pad9)*%
X128270000Y-121920000D03*
%TO.P,J1,10,Pin_10*%
%TO.N,unconnected-(J1-Pin_10-Pad10)*%
X130810000Y-121920000D03*
%TO.P,J1,11,Pin_11*%
%TO.N,unconnected-(J1-Pin_11-Pad11)*%
X133350000Y-121920000D03*
%TO.P,J1,12,Pin_12*%
%TO.N,unconnected-(J1-Pin_12-Pad12)*%
X135890000Y-121920000D03*
%TO.P,J1,13,Pin_13*%
%TO.N,unconnected-(J1-Pin_13-Pad13)*%
X138430000Y-121920000D03*
%TO.P,J1,14,Pin_14*%
%TO.N,Net-(J1-Pin_14)*%
X140970000Y-121920000D03*
%TO.P,J1,15,Pin_15*%
%TO.N,Net-(J1-Pin_15)*%
X143510000Y-121920000D03*
%TO.P,J1,16,Pin_16*%
%TO.N,unconnected-(J1-Pin_16-Pad16)*%
X146050000Y-121920000D03*
%TD*%
D10*
%TO.P,J4,1,Pin_1*%
%TO.N,Net-(J1-Pin_2)*%
X163449000Y-101981000D03*
D11*
%TO.P,J4,2,Pin_2*%
%TO.N,Net-(J1-Pin_4)*%
X160909000Y-101981000D03*
%TO.P,J4,3,Pin_3*%
%TO.N,Net-(J3-Pin_4)*%
X158369000Y-101981000D03*
%TO.P,J4,4,Pin_4*%
%TO.N,unconnected-(J4-Pin_4-Pad4)*%
X155829000Y-101981000D03*
%TD*%
D12*
%TO.P,J3,1,Pin_1*%
%TO.N,Net-(J1-Pin_15)*%
X162909000Y-124841000D03*
D13*
%TO.P,J3,2,Pin_2*%
%TO.N,Net-(J1-Pin_14)*%
X160909000Y-124841000D03*
%TO.P,J3,3,Pin_3*%
%TO.N,Net-(J1-Pin_4)*%
X158909000Y-124841000D03*
%TO.P,J3,4,Pin_4*%
%TO.N,Net-(J3-Pin_4)*%
X156909000Y-124841000D03*
%TD*%
D14*
%TO.P,J6,1,Pin_1*%
%TO.N,Net-(J1-Pin_4)*%
X170942000Y-109887000D03*
D15*
%TO.P,J6,2,Pin_2*%
X170942000Y-111887000D03*
%TO.P,J6,3,Pin_3*%
X170942000Y-113887000D03*
%TO.P,J6,4,Pin_4*%
%TO.N,Net-(J2-Pin_11)*%
X170942000Y-115887000D03*
%TO.P,J6,5,Pin_5*%
%TO.N,Net-(J2-Pin_6)*%
X170942000Y-117887000D03*
%TO.P,J6,6,Pin_6*%
%TO.N,Net-(J2-Pin_5)*%
X170942000Y-119887000D03*
%TD*%
D16*
%TO.N,Net-(J2-Pin_6)*%
X163322000Y-114935000D03*
X163322000Y-117983000D03*
%TD*%
D17*
%TO.N,Net-(J2-Pin_6)*%
X163195000Y-114935000D02*
X163322000Y-114935000D01*
X163418000Y-117887000D02*
X170942000Y-117887000D01*
X163168000Y-114962000D02*
X163195000Y-114935000D01*
X146712000Y-114962000D02*
X163168000Y-114962000D01*
X163322000Y-117983000D02*
X163418000Y-117887000D01*
X163322000Y-114935000D02*
X163322000Y-114808000D01*
X163322000Y-114808000D02*
X163322000Y-114808000D01*
X133350000Y-101600000D02*
X146712000Y-114962000D01*
%TO.N,Net-(J1-Pin_4)*%
X168815000Y-109887000D02*
X160909000Y-101981000D01*
X170942000Y-109887000D02*
X168815000Y-109887000D01*
%TO.N,Net-(J2-Pin_11)*%
X134937000Y-115887000D02*
X170942000Y-115887000D01*
X120650000Y-101600000D02*
X134937000Y-115887000D01*
%TO.N,Net-(J1-Pin_14)*%
X160909000Y-126365000D02*
X159131000Y-128143000D01*
X147193000Y-128143000D02*
X140970000Y-121920000D01*
X159131000Y-128143000D02*
X147193000Y-128143000D01*
X160909000Y-124841000D02*
X160909000Y-126365000D01*
%TO.N,Net-(J1-Pin_15)*%
X143256000Y-121666000D02*
X143256000Y-120015000D01*
X143256000Y-120015000D02*
X144272000Y-118999000D01*
X144272000Y-118999000D02*
X157067000Y-118999000D01*
X157067000Y-118999000D02*
X162909000Y-124841000D01*
X143510000Y-121920000D02*
X143256000Y-121666000D01*
%TO.N,Net-(J2-Pin_5)*%
X137414000Y-100076000D02*
X135890000Y-101600000D01*
X173228000Y-100076000D02*
X137414000Y-100076000D01*
X170942000Y-119887000D02*
X173228000Y-117601000D01*
X173228000Y-117601000D02*
X173228000Y-100076000D01*
%TD*%
M02*
