M48
; DRILL file {KiCad 7.0.7} date 2025 February 28, Friday 10:15:58
; FORMAT={-:-/ absolute / inch / decimal}
; #@! TF.CreationDate,2025-02-28T10:15:58+00:00
; #@! TF.GenerationSoftware,Kicad,Pcbnew,7.0.7
; #@! TF.FileFunction,Plated,1,2,PTH
FMAT,2
INCH
; #@! TA.AperFunction,Plated,PTH,ViaDrill
T1C0.0157
; #@! TA.AperFunction,Plated,PTH,ComponentDrill
T2C0.0295
; #@! TA.AperFunction,Plated,PTH,ComponentDrill
T3C0.0394
%
G90
G05
T1
X6.43Y-4.525
X6.43Y-4.645
T2
X6.1775Y-4.915
X6.2563Y-4.915
X6.335Y-4.915
X6.4137Y-4.915
X6.73Y-4.3263
X6.73Y-4.405
X6.73Y-4.4837
X6.73Y-4.5625
X6.73Y-4.6412
X6.73Y-4.72
T3
X4.25Y-4.8
X4.35Y-4.8
X4.45Y-4.8
X4.55Y-4.8
X4.65Y-4.0
X4.65Y-4.8
X4.75Y-4.0
X4.75Y-4.8
X4.85Y-4.0
X4.85Y-4.8
X4.95Y-4.0
X4.95Y-4.8
X5.05Y-4.0
X5.05Y-4.8
X5.15Y-4.0
X5.15Y-4.8
X5.25Y-4.0
X5.25Y-4.8
X5.35Y-4.0
X5.35Y-4.8
X5.45Y-4.0
X5.45Y-4.8
X5.55Y-4.0
X5.55Y-4.8
X5.65Y-4.0
X5.65Y-4.8
X5.75Y-4.0
X5.75Y-4.8
X6.135Y-4.015
X6.235Y-4.015
X6.335Y-4.015
X6.435Y-4.015
T0
M30
