%TF.GenerationSoftware,KiCad,Pcbnew,7.0.7*%
%TF.CreationDate,2025-02-28T10:15:51+00:00*%
%TF.ProjectId,MRF67-pro-small,4d524636-372d-4707-926f-2d736d616c6c,rev?*%
%TF.SameCoordinates,Original*%
%TF.FileFunction,Soldermask,Top*%
%TF.FilePolarity,Negative*%
%FSLAX46Y46*%
G04 Gerber Fmt 4.6, Leading zero omitted, Abs format (unit mm)*
G04 Created by KiCad (PCBNEW 7.0.7) date 2025-02-28 10:15:51*
%MOMM*%
%LPD*%
G01*
G04 APERTURE LIST*
G04 Aperture macros list*
%AMRoundRect*
0 Rectangle with rounded corners*
0 $1 Rounding radius*
0 $2 $3 $4 $5 $6 $7 $8 $9 X,Y pos of 4 corners*
0 Add a 4 corners polygon primitive as box body*
4,1,4,$2,$3,$4,$5,$6,$7,$8,$9,$2,$3,0*
0 Add four circle primitives for the rounded corners*
1,1,$1+$1,$2,$3*
1,1,$1+$1,$4,$5*
1,1,$1+$1,$6,$7*
1,1,$1+$1,$8,$9*
0 Add four rect primitives between the rounded corners*
20,1,$1+$1,$2,$3,$4,$5,0*
20,1,$1+$1,$4,$5,$6,$7,0*
20,1,$1+$1,$6,$7,$8,$9,0*
20,1,$1+$1,$8,$9,$2,$3,0*%
G04 Aperture macros list end*
%ADD10R,1.700000X1.700000*%
%ADD11O,1.700000X1.700000*%
%ADD12C,2.200000*%
%ADD13RoundRect,0.250000X0.350000X0.625000X-0.350000X0.625000X-0.350000X-0.625000X0.350000X-0.625000X0*%
%ADD14O,1.200000X1.750000*%
%ADD15RoundRect,0.250000X-0.625000X0.350000X-0.625000X-0.350000X0.625000X-0.350000X0.625000X0.350000X0*%
%ADD16O,1.750000X1.200000*%
G04 APERTURE END LIST*
D10*
%TO.C,J2*%
X146050000Y-101600000D03*
D11*
X143510000Y-101600000D03*
X140970000Y-101600000D03*
X138430000Y-101600000D03*
X135890000Y-101600000D03*
X133350000Y-101600000D03*
X130810000Y-101600000D03*
X128270000Y-101600000D03*
X125730000Y-101600000D03*
X123190000Y-101600000D03*
X120650000Y-101600000D03*
X118110000Y-101600000D03*
%TD*%
D10*
%TO.C,J1*%
X107950000Y-121920000D03*
D11*
X110490000Y-121920000D03*
X113030000Y-121920000D03*
X115570000Y-121920000D03*
X118110000Y-121920000D03*
X120650000Y-121920000D03*
X123190000Y-121920000D03*
X125730000Y-121920000D03*
X128270000Y-121920000D03*
X130810000Y-121920000D03*
X133350000Y-121920000D03*
X135890000Y-121920000D03*
X138430000Y-121920000D03*
X140970000Y-121920000D03*
X143510000Y-121920000D03*
X146050000Y-121920000D03*
%TD*%
D12*
%TO.C,REF\u002A\u002A*%
X108839000Y-126365000D03*
%TD*%
%TO.C,REF\u002A\u002A*%
X169545000Y-125857000D03*
%TD*%
%TO.C,REF\u002A\u002A*%
X169545000Y-102743000D03*
%TD*%
D10*
%TO.C,J4*%
X163449000Y-101981000D03*
D11*
X160909000Y-101981000D03*
X158369000Y-101981000D03*
X155829000Y-101981000D03*
%TD*%
D13*
%TO.C,J3*%
X162909000Y-124841000D03*
D14*
X160909000Y-124841000D03*
X158909000Y-124841000D03*
X156909000Y-124841000D03*
%TD*%
D15*
%TO.C,J6*%
X170942000Y-109887000D03*
D16*
X170942000Y-111887000D03*
X170942000Y-113887000D03*
X170942000Y-115887000D03*
X170942000Y-117887000D03*
X170942000Y-119887000D03*
%TD*%
M02*
